<?xml version="1.0" standalone="no"?><!DOCTYPE svg PUBLIC "-//W3C//DTD SVG 1.1//EN" "http://www.w3.org/Graphics/SVG/1.1/DTD/svg11.dtd"><svg t="1680687213031" class="icon" viewBox="0 0 1024 1024" version="1.1" xmlns="http://www.w3.org/2000/svg" p-id="3654" xmlns:xlink="http://www.w3.org/1999/xlink" width="200" height="200"><path d="M900 64H360c-33.137 0-60 26.863-60 60v146H124c-33.137 0-60 26.863-60 60v570c0 33.137 26.863 60 60 60h570c33.137 0 60-26.863 60-60V724h146c33.137 0 60-26.863 60-60V124c0-33.137-26.863-60-60-60zM664 634v176c0 33.137-26.863 60-60 60H214c-33.137 0-60-26.863-60-60V420c0-33.137 26.863-60 60-60h390c33.137 0 60 26.863 60 60v214z m206-60c0 33.137-26.863 60-60 60h-56V330c0-33.137-26.863-60-60-60H390v-56c0-33.137 26.863-60 60-60h360c33.137 0 60 26.863 60 60v360z" fill="#29ABE2" p-id="3655"></path></svg>